<svg width="367" height="350" viewBox="0 0 367 350" fill="none" xmlns="http://www.w3.org/2000/svg">
<path d="M139.205 228.412C122.733 258.569 142.431 281.853 178.254 295.784V316.238H140.449L127.909 271.966C119.181 269.703 110.522 266.321 102.077 261.707L59.4886 286.999L34.1443 261.234L57.1696 217.502C52.6637 209.458 49.1764 200.952 46.7244 192.188L0 179.285V142.784L46.4746 128.906C48.8606 120.098 52.2733 111.538 56.7254 103.439L33.0883 60.4775L58.4326 34.7119L101.031 59.0379C109.156 54.4912 117.491 51.0827 125.897 48.732L139.041 0H174.946L188.471 49.7536C196.375 52.213 203.99 55.5298 211.178 59.6199L255.907 33.6384L281.251 59.4039L255.822 105.308C262.346 117.499 266.789 131.149 268.536 145.911L223.683 145.911C214.654 100.456 163.022 74.6425 121.159 99.1784C64.106 132.578 83.6037 218.382 139.205 228.412ZM245.792 266.23C232.868 258.606 232.868 239.44 245.792 231.816C258.716 224.191 274.958 233.773 274.958 249.023C274.958 264.272 258.716 273.855 245.792 266.23ZM320.311 287.351C333.941 348.972 305.831 371.231 255.906 325.708C204.437 371.754 177.353 348.604 190.992 287.646C131.38 268.995 127.204 230.568 190.495 211.171C176.77 144.98 210.628 130.438 255.921 173.606C304.044 128.345 333.937 148.929 321.07 211.456C379.487 230.642 385.334 264.939 320.311 287.351ZM264.044 182.084C271.124 189.391 276.098 195.879 281.387 203.741C291.426 204.67 299.503 206.04 309.704 208.379C320.083 160.047 301.78 144.663 264.044 182.084ZM205.774 279.328C212.822 280.596 214.973 280.961 221.119 281.601C217.345 275.234 215.086 272.794 211.269 264.509C208.726 270.989 208.033 272.901 205.774 279.328ZM221.099 217.191C214.917 217.667 212.249 218.448 204.973 219.981C207.066 226.138 207.972 228.441 210.779 235.293C214.934 227.299 216.498 224.538 221.099 217.191ZM236.358 282.992C250.079 283.866 262.028 284.016 275.202 283.001C283.093 270.532 289.194 260.204 294.016 250.075C287.573 236.831 281.656 226.008 274.473 215.833C261.666 214.874 250.201 214.816 237.106 215.581C229.726 226.449 223.858 237.248 217.565 250.061C223.638 262.094 229.404 272.161 236.358 282.992ZM290.529 281.316C296.966 280.621 298.974 280.262 305.579 278.848C303.439 272.459 302.76 270.494 300.261 264.33C296.238 271.996 294.935 274.376 290.529 281.316ZM300.6 235.318C303.392 229.018 304.173 226.834 306.36 220.229C299.825 218.762 297.58 218.317 290.563 217.341C295.17 224.69 296.616 227.331 300.6 235.318ZM255.695 190.956C251.264 196.222 250.046 197.687 246.422 202.533C254.701 202.224 257.152 202.209 265.167 202.528C261.223 197.193 260.013 195.695 255.695 190.956ZM201.629 208.114C211.829 205.774 220.146 204.408 230.185 203.479C235.474 195.617 240.448 189.39 247.527 182.083C208.295 145.493 191.39 158.926 201.629 208.114ZM203.971 249.564C199.738 240.265 196.617 232.287 193.526 222.752C143.001 237.839 145.949 261.371 194.027 276.326C196.823 267.303 199.858 259.181 203.971 249.564ZM247.535 317.262C240.854 310.269 235.75 303.534 229.677 294.82C219.583 293.728 211.706 292.995 202.613 290.728C189.29 343.357 213.266 351.437 247.535 317.262ZM266.315 295.741C257.872 295.96 254.41 295.929 245.221 295.732C249.343 301.76 251.002 303.842 255.657 308.743C260.485 303.646 262.226 301.639 266.315 295.741ZM308.938 290.453C299.206 292.71 291.37 293.869 281.887 294.579C276.331 302.703 271.184 309.318 264.015 317.236C300.915 353.01 320.877 339.692 308.938 290.453ZM317.79 223.026C314.743 232.561 311.771 240.265 307.596 249.563C311.652 259.18 314.533 266.77 317.29 275.793C371.075 258.962 360.941 236.078 317.79 223.026Z" fill="white"/>
</svg>
